#!OML:ASF H:\charlestonDancing\Project 1\Capture day 1\Session 1\femaleDancer.ASF
:FULLY-SPECIFIED
:DEGREES
86
root -1.50326 17.0946 5.62648 591.646 -85.87 -589.616
lowerback 22.7681 -4.65025 0.0753533
upperback 6.36257 -6.70858 -2.80779
thorax -6.01353 -3.45279 -1.21322
lowerneck -0.484676 -2.67127 -1.23432
upperneck 0.731983 -3.55622 0.45864
head 0.329965 -1.77965 0.32242
rclavicle 3.61788e-014 3.65764e-014
rhumerus -48.1908 -23.1768 -46.6345
rradius 90.4026
rwrist -45.882
rhand -8.30512 -29.4935
rfingers 7.12502
rthumb 17.6152 -58.7156
lclavicle 3.61788e-014 3.65764e-014
lhumerus -22.5709 7.33248 67.2031
lradius 67.7683
lwrist -1.33113
lhand -28.6597 12.7648
lfingers 7.12502
lthumb -2.02301 42.7349
rfemur -44.2634 -0.900214 15.7991
rtibia 78.352
rfoot -7.89617 10.8059
rtoes -38.8558
lfemur -25.0283 1.45327 -29.8663
ltibia 47.0335
lfoot -12.9046 -11.9535
ltoes -3.53842
87
root -1.46598 17.1393 5.63606 600.595 -86.4422 -598.78
lowerback 23.0658 -5.11462 0.0389946
upperback 6.59329 -7.3258 -2.76259
thorax -5.92058 -3.75731 -0.959624
lowerneck -0.146579 -3.56139 -2.1961
upperneck 0.408689 -4.74731 1.12654
head 0.228582 -2.37505 0.685907
rclavicle 7.95139e-014 -3.18055e-015
rhumerus -47.1102 -23.1537 -47.5611
rradius 90.1138
rwrist -45.5599
rhand -8.73653 -29.7749
rfingers 7.12502
rthumb 17.2 -59.0337
lclavicle 7.95139e-014 -3.18055e-015
lhumerus -17.5356 6.65361 67.2862
lradius 68.6944
lwrist -5.62663
lhand -29.2783 11.6863
lfingers 7.12502
lthumb -2.62053 41.65
rfemur -46.6351 -0.398226 15.4879
rtibia 80.3491
rfoot -9.34419 9.88788
rtoes -36.8886
lfemur -24.5454 1.59331 -29.8041
ltibia 46.2266
lfoot -12.0256 -12.3713
ltoes -3.49422
88
root -1.43296 17.2097 5.65325 607.247 -86.9056 -605.486
lowerback 23.2174 -5.5488 0.145505
upperback 6.77281 -7.8611 -2.65515
thorax -5.8125 -4.02169 -0.750379
lowerneck 0.106354 -4.221 -3.04779
upperneck 0.205673 -5.63398 1.43412
head 0.174694 -2.81952 0.925127
rclavicle 3.1408e-014 4.13472e-014
rhumerus -45.8034 -22.9075 -48.5278
rradius 89.6311
rwrist -45.2446
rhand -8.88938 -29.6634
rfingers 7.12502
rthumb 17.0529 -58.9349
lclavicle 3.1408e-014 4.13472e-014
lhumerus -12.7342 6.32076 67.322
lradius 69.2176
lwrist -9.22265
lhand -29.4051 10.234
lfingers 7.12502
lthumb -2.74296 40.1961
rfemur -48.8738 0.355678 15.3418
rtibia 81.3462
rfoot -10.5628 8.45153
rtoes -34.0954
lfemur -24.0716 1.415 -29.6245
ltibia 45.1624
lfoot -11.1741 -12.2064
ltoes -2.9145
89
root -1.39995 17.2967 5.67179 611.372 -87.4061 -609.495
lowerback 23.2495 -5.9405 0.341276
upperback 6.94833 -8.31021 -2.43439
thorax -5.63907 -4.24543 -0.505571
lowerneck 0.188267 -4.69414 -3.62083
upperneck -0.0456198 -6.27175 1.31334
head 0.113206 -3.13911 0.985162
rclavicle -1.10922e-013 -3.97569e-015
rhumerus -44.1309 -22.6626 -49.4925
rradius 88.8337
rwrist -44.7977
rhand -8.92569 -29.4952
rfingers 7.12502
rthumb 17.018 -58.7697
lclavicle -1.10922e-013 -3.97569e-015
lhumerus -8.16644 6.285 67.4372
lradius 69.5731
lwrist -11.2366
lhand -29.1653 9.18293
lfingers 7.12502
lthumb -2.51139 39.1479
rfemur -50.9756 1.33289 15.3798
rtibia 81.304
rfoot -11.6808 6.78751
rtoes -30.9947
lfemur -23.6788 0.670696 -29.2694
ltibia 43.9289
lfoot -10.6751 -11.2003
ltoes -3.91325
90
root -1.38341 17.3987 5.69783 606.404 -87.6683 -604.442
lowerback 23.2456 -6.15825 0.388264
upperback 7.14695 -8.57438 -2.20983
thorax -5.39577 -4.38336 -0.234226
lowerneck 0.327998 -4.9811 -3.96984
upperneck -0.443487 -6.67076 0.903793
head -0.0246938 -3.3378 0.924752
rclavicle -5.1684e-015 1.51076e-014
rhumerus -42.2992 -22.3536 -50.4025
rradius 87.8345
rwrist -44.2717
rhand -8.82257 -29.3478
rfingers 7.12502
rthumb 17.1172 -58.6138
lclavicle -5.1684e-015 1.51076e-014
lhumerus -4.08809 6.43279 67.6276
lradius 69.9815
lwrist -11.4786
lhand -28.9743 8.4934
lfingers 7.12502
lthumb -2.32685 38.4605
rfemur -52.6422 2.71971 15.2998
rtibia 80.1725
rfoot -12.9357 5.11777
rtoes -29.1768
lfemur -23.051 -0.364484 -28.997
ltibia 42.5286
lfoot -10.7359 -9.34533
ltoes -6.54675
91
root -1.35227 17.4961 5.71205 601.315 -88.0043 -598.95
lowerback 23.2405 -6.41085 0.303548
upperback 7.15692 -8.89347 -1.88274
thorax -5.32078 -4.53961 0.244144
lowerneck 0.572936 -5.08223 -4.10105
upperneck -0.943392 -6.83742 0.287467
head -0.231629 -3.41749 0.772769
rclavicle -2.26615e-014 -2.14687e-014
rhumerus -40.4148 -21.8726 -51.3181
rradius 86.7721
rwrist -44.039
rhand -8.31005 -29.0427
rfingers 7.12502
rthumb 17.6105 -58.2652
lclavicle -2.26615e-014 -2.14687e-014
lhumerus -0.552377 6.80373 67.753
lradius 70.3872
lwrist -10.2439
lhand -28.7559 8.15377
lfingers 7.12502
lthumb -2.11594 38.123
rfemur -54.3526 4.03571 15.2944
rtibia 78.0644
rfoot -13.9558 3.38561
rtoes -28.2343
lfemur -22.8452 -1.70068 -28.6005
ltibia 41.1461
lfoot -10.6572 -7.19133
ltoes -9.22472
92
root -1.35517 17.6148 5.73364 566.781 -87.7195 -564.458
lowerback 23.4699 -6.32388 0.371991
upperback 7.36159 -8.76749 -1.59544
thorax -5.17234 -4.49291 0.485678
lowerneck 0.667164 -5.11974 -4.12335
upperneck -1.49869 -6.92156 -0.278249
head -0.434612 -3.45366 0.617608
rclavicle 2.70347e-014 3.97569e-015
rhumerus -38.4474 -21.3668 -52.2384
rradius 85.6686
rwrist -44.0431
rhand -7.98907 -28.7801
rfingers 7.12502
rthumb 17.9194 -57.9746
lclavicle 2.70347e-014 3.97569e-015
lhumerus 2.90278 7.22628 67.7495
lradius 70.5154
lwrist -8.26889
lhand -28.7896 8.17143
lfingers 7.12502
lthumb -2.1485 38.1404
rfemur -54.9808 6.38537 15.6854
rtibia 74.8087
rfoot -14.7947 1.76629
rtoes -27.4112
lfemur -22.0527 -1.93002 -27.845
ltibia 39.7984
lfoot -10.7132 -5.0192
ltoes -12.0945
93
root -1.34781 17.7171 5.758 547.193 -87.276 -544.681
lowerback 23.5202 -6.37653 0.605316
upperback 7.50935 -8.7782 -1.3193
thorax -5.0227 -4.50885 0.647522
lowerneck 0.668124 -5.16078 -4.18913
upperneck -1.99861 -7.00534 -0.588193
head -0.595597 -3.48976 0.544684
rclavicle 1.40342e-013 -2.8625e-014
rhumerus -36.6284 -20.8041 -53.058
rradius 84.6416
rwrist -44.0527
rhand -8.21815 -28.7331
rfingers 7.12502
rthumb 17.6989 -57.9476
lclavicle 1.40342e-013 -2.8625e-014
lhumerus 6.24795 7.49982 67.6125
lradius 70.3937
lwrist -6.61686
lhand -29.1114 8.37811
lfingers 7.12502
lthumb -2.4593 38.3437
rfemur -55.4741 8.16349 15.9427
rtibia 70.6971
rfoot -15.4526 0.435816
rtoes -27.642
lfemur -21.6616 -2.17686 -27.1849
ltibia 38.6736
lfoot -10.4583 -3.3369
ltoes -12.9896
94
root -1.33298 17.7917 5.78345 535.431 -86.8626 -532.669
lowerback 23.6014 -6.54478 0.886862
upperback 7.55234 -8.92323 -1.11865
thorax -5.02261 -4.58251 0.752564
lowerneck 0.676505 -5.14172 -4.20401
upperneck -2.29627 -6.99903 -0.761271
head -0.694542 -3.4829 0.50127
rclavicle 4.92986e-014 -7.95139e-015
rhumerus -34.8825 -20.1469 -53.9244
rradius 83.6505
rwrist -44.0414
rhand -8.48859 -28.8134
rfingers 7.12502
rthumb 17.4387 -58.0511
lclavicle 4.92986e-014 -7.95139e-015
lhumerus 9.26195 7.79964 67.288
lradius 70.0602
lwrist -5.67372
lhand -29.0773 8.46423
lfingers 7.12502
lthumb -2.42641 38.4302
rfemur -55.6977 9.53824 16.0236
rtibia 65.8105
rfoot -15.9984 -0.436422
rtoes -27.603
lfemur -21.4876 -2.40122 -26.6468
ltibia 37.7706
lfoot -10.0612 -2.16799
ltoes -12.337
95
root -1.31618 17.8407 5.8083 526.822 -86.2974 -523.853
lowerback 23.6949 -6.69898 1.25563
upperback 7.58105 -9.03557 -1.01478
thorax -5.07304 -4.63811 0.702627
lowerneck 0.685502 -5.10576 -4.09264
upperneck -2.47874 -6.95958 -0.842432
head -0.759581 -3.46129 0.462963
rclavicle 8.34896e-015 -1.82882e-014
rhumerus -33.8608 -19.2047 -54.3976
rradius 83.2656
rwrist -44.5547
rhand -8.56247 -28.8921
rfingers 7.12502
rthumb 17.3676 -58.1362
lclavicle 8.34896e-015 -1.82882e-014
lhumerus 12.1536 8.10654 66.8639
lradius 69.4338
lwrist -5.40925
lhand -28.5422 8.46721
lfingers 7.12502
lthumb -1.90955 38.4384
rfemur -55.6082 10.8629 16.0753
rtibia 60.3392
rfoot -16.4357 -1.039
rtoes -26.6782
lfemur -21.4389 -2.46618 -26.0674
ltibia 37.1454
lfoot -9.81963 -1.34361
ltoes -12.6227
96
root -1.3033 17.8662 5.83104 519.807 -85.6622 -516.766
lowerback 23.7611 -6.80864 1.78123
upperback 7.64906 -9.06178 -0.964557
thorax -5.09799 -4.65283 0.481236
lowerneck 0.767551 -5.08547 -4.00034
upperneck -2.65942 -6.9368 -0.756044
head -0.829583 -3.44804 0.480914
rclavicle 3.06128e-014 -5.80451e-014
rhumerus -33.03 -18.4937 -54.7769
rradius 82.9049
rwrist -44.9677
rhand -8.45907 -28.7734
rfingers 7.12502
rthumb 17.4671 -58.0087
lclavicle 3.06128e-014 -5.80451e-014
lhumerus 15.0346 8.32307 66.516
lradius 68.5256
lwrist -5.96532
lhand -27.8029 8.47762
lfingers 7.12502
lthumb -1.19555 38.454
rfemur -55.1174 12.1352 16.1848
rtibia 54.4592
rfoot -16.7073 -1.50191
rtoes -26.0064
lfemur -21.3333 -2.62399 -25.3401
ltibia 36.7564
lfoot -9.92224 -0.877319
ltoes -13.5261
97
root -1.29275 17.86 5.85372 517.393 -85.0076 -514.352
lowerback 23.7248 -6.81032 2.12795
upperback 7.72246 -8.99702 -0.980561
thorax -5.05009 -4.62449 0.248219
lowerneck 0.912748 -5.02348 -3.90842
upperneck -2.82324 -6.85915 -0.669269
head -0.905999 -3.4071 0.500433
rclavicle -1.06549e-013 3.02153e-014
rhumerus -32.4742 -17.8661 -54.9363
rradius 82.7306
rwrist -45.2639
rhand -8.23922 -28.7571
rfingers 7.12502
rthumb 17.6787 -57.9735
lclavicle -1.06549e-013 3.02153e-014
lhumerus 17.6719 8.56745 66.3449
lradius 67.5483
lwrist -7.08804
lhand -27.1434 8.37339
lfingers 7.12502
lthumb -0.558617 38.3524
rfemur -54.4719 13.3327 16.0408
rtibia 48.4653
rfoot -17.2176 -1.39573
rtoes -25.2411
lfemur -21.2567 -2.91524 -24.7852
ltibia 36.5787
lfoot -10.3366 -0.702068
ltoes -16.2958
98
root -1.27992 17.8206 5.8807 518.914 -84.3413 -515.762
lowerback 23.4966 -6.7154 2.27171
upperback 7.69174 -8.85355 -1.07816
thorax -5.00411 -4.5537 0.00269198
lowerneck 1.17825 -4.91071 -3.67976
upperneck -2.87771 -6.71512 -0.722286
head -0.978894 -3.33302 0.456292
rclavicle 3.02153e-014 -2.94201e-014
rhumerus -32.3563 -17.1317 -54.8775
rradius 82.8675
rwrist -45.4443
rhand -8.19761 -29.0119
rfingers 7.12502
rthumb 17.7187 -58.2246
lclavicle 3.02153e-014 -2.94201e-014
lhumerus 19.7299 8.80042 66.3781
lradius 66.7173
lwrist -8.2678
lhand -26.7894 8.17147
lfingers 7.12502
lthumb -0.216652 38.1511
rfemur -54.0847 14.3779 15.5921
rtibia 42.7069
rfoot -17.7236 -0.731406
rtoes -25.7052
lfemur -21.4247 -3.00847 -24.571
ltibia 36.5794
lfoot -10.8681 -0.784121
ltoes -19.3123
99
root -1.26429 17.7639 5.90587 520.307 -83.8595 -517.099
lowerback 23.32 -6.62023 2.43863
upperback 7.59445 -8.69809 -1.19394
thorax -5.06072 -4.47361 -0.266406
lowerneck 1.37244 -4.77598 -3.48084
upperneck -2.64936 -6.52807 -0.763231
head -0.950465 -3.24062 0.411622
rclavicle 5.40694e-014 -1.35174e-014
rhumerus -32.6296 -16.4749 -54.6355
rradius 83.2246
rwrist -45.5776
rhand -8.43899 -29.4683
rfingers 7.12502
rthumb 17.4864 -58.7018
lclavicle 5.40694e-014 -1.35174e-014
lhumerus 21.2136 8.82544 66.655
lradius 66.1303
lwrist -9.14856
lhand -26.6743 8.11359
lfingers 7.12502
lthumb -0.10547 38.0933
rfemur -53.8628 15.2078 15.1019
rtibia 37.8378
rfoot -18.46 1.01608
rtoes -27.4306
lfemur -21.6615 -2.88638 -24.543
ltibia 36.8324
lfoot -11.3865 -1.06075
ltoes -18.1205
100
root -1.24148 17.7135 5.92413 521.946 -83.5909 -518.884
lowerback 23.3112 -6.46113 2.49428
upperback 7.55516 -8.48579 -1.28161
thorax -5.11402 -4.36928 -0.447386
lowerneck 1.20709 -4.6444 -3.46448
upperneck -2.14422 -6.32599 -0.708748
head -0.767124 -3.14585 0.408788
rclavicle 6.12257e-014 -3.65764e-014
rhumerus -33.1621 -16.1404 -54.1565
rradius 83.7571
rwrist -45.7874
rhand -8.67059 -30.0726
rfingers 7.12502
rthumb 17.2635 -59.3258
lclavicle 6.12257e-014 -3.65764e-014
lhumerus 22.2464 8.46851 67.069
lradius 65.8762
lwrist -9.0774
lhand -26.6749 8.24471
lfingers 7.12502
lthumb -0.106078 38.2244
rfemur -53.8511 15.9963 14.4942
rtibia 34.5359
rfoot -19.2218 2.62664
rtoes -27.1983
lfemur -21.8091 -2.74987 -24.7112
ltibia 37.2375
lfoot -11.7514 -1.10295
ltoes -16.2102
